<svg width="15" height="15" viewBox="0 0 15 15" fill="none" xmlns="http://www.w3.org/2000/svg">
<path d="M7.5 12.75C10.3995 12.75 12.75 10.3995 12.75 7.5C12.75 4.6005 10.3995 2.25 7.5 2.25C4.6005 2.25 2.25 4.6005 2.25 7.5C2.25 10.3995 4.6005 12.75 7.5 12.75Z" stroke="black" stroke-linecap="round" stroke-linejoin="round"/>
<path d="M7.50039 9.60002C8.66022 9.60002 9.60039 8.65985 9.60039 7.50002C9.60039 6.34019 8.66022 5.40002 7.50039 5.40002C6.34056 5.40002 5.40039 6.34019 5.40039 7.50002C5.40039 8.65985 6.34056 9.60002 7.50039 9.60002Z" stroke="black" stroke-linecap="round" stroke-linejoin="round"/>
<path d="M7.5 1.9V0.5" stroke="black" stroke-linecap="round" stroke-linejoin="round"/>
<path d="M1.9 7.5H0.5" stroke="black" stroke-linecap="round" stroke-linejoin="round"/>
<path d="M7.5 13.1V14.5" stroke="black" stroke-linecap="round" stroke-linejoin="round"/>
<path d="M13.0996 7.5H14.4996" stroke="black" stroke-linecap="round" stroke-linejoin="round"/>
</svg>
