<svg width="15" height="14" viewBox="0 0 15 14" fill="none" xmlns="http://www.w3.org/2000/svg">
<path d="M10.7508 12.003C11.6961 12.0096 12.6061 11.677 13.3045 11.0784C15.6113 9.17622 14.3767 5.35846 11.3363 4.99933C10.2499 -1.21285 0.747688 1.14166 2.99803 7.0545" stroke="white" stroke-miterlimit="10" stroke-linecap="round" stroke-linejoin="round"/>
<path d="M4.16915 7.32717C3.79527 7.14759 3.37907 7.05447 2.96286 7.06112C-0.324478 7.28061 -0.317425 11.7901 2.96286 12.0096" stroke="white" stroke-miterlimit="10" stroke-linecap="round" stroke-linejoin="round"/>
<path d="M10.1936 5.27856C10.5604 5.10563 10.9555 5.01251 11.3646 5.00586" stroke="white" stroke-miterlimit="10" stroke-linecap="round" stroke-linejoin="round"/>
<path d="M6.06688 12.0029L4.65601 13.3332" stroke="white" stroke-miterlimit="10" stroke-linecap="round" stroke-linejoin="round"/>
<path d="M8.88841 12.0029L7.47754 13.3332" stroke="white" stroke-miterlimit="10" stroke-linecap="round" stroke-linejoin="round"/>
<path d="M8.88841 9.34253L7.47754 10.6728" stroke="white" stroke-miterlimit="10" stroke-linecap="round" stroke-linejoin="round"/>
<path d="M6.06688 9.34253L4.65601 10.6728" stroke="white" stroke-miterlimit="10" stroke-linecap="round" stroke-linejoin="round"/>
</svg>
