<svg width="13" height="12" viewBox="0 0 13 12" fill="none" xmlns="http://www.w3.org/2000/svg">
<path d="M8.5 2.34139C10.8304 3.16506 12.5 5.38754 12.5 7.99993C12.5 8.97893 12.2655 9.90319 11.8497 10.7195C11.6477 11.116 11.2226 11.3333 10.7777 11.3333H2.22234C1.77742 11.3333 1.35226 11.116 1.15031 10.7195C0.734467 9.90319 0.5 8.97893 0.5 7.99993C0.5 5.38754 2.16961 3.16506 4.5 2.34139M6.5 7.3332C6.1318 7.3332 5.83333 7.63173 5.83333 7.99987C5.83333 8.36806 6.1318 8.66653 6.5 8.66653C6.8682 8.66653 7.16667 8.36806 7.16667 7.99987C7.16667 7.63173 6.8682 7.3332 6.5 7.3332ZM6.5 7.3332V1.33325" stroke="white" stroke-linecap="round" stroke-linejoin="round"/>
</svg>
