<svg width="18" height="18" viewBox="0 0 18 18" fill="none" xmlns="http://www.w3.org/2000/svg">
<path d="M8.95421 0C4.84937 0 1.40468 2.91761 1.09187 6.713H2.14787C2.46343 3.61985 5.34691 1.12781 8.95421 1.12781C12.1678 1.12781 14.8069 3.10564 15.5678 5.72423L12.8712 4.94807L12.5995 6.03738L16.8587 7.26337L18 2.68805L16.9859 2.39616L16.3811 4.82107C15.2838 1.9901 12.3443 0 8.95421 0ZM1.14126 10.7366L0 15.312L1.01408 15.6038L1.61895 13.1789C2.71617 16.0099 5.65573 18 9.04579 18C13.1506 18 16.5953 15.0824 16.9081 11.287H15.8521C15.5366 14.3802 12.6531 16.8722 9.04579 16.8722C5.83221 16.8722 3.19312 14.8944 2.4322 12.2758L5.12877 13.0519L5.40053 11.9626L1.14126 10.7366Z" fill="black"/>
</svg>
