<svg width="13" height="14" viewBox="0 0 13 14" fill="none" xmlns="http://www.w3.org/2000/svg">
<path d="M0.5 8.76318H10.4C11.558 8.76318 12.5 9.78821 12.5 11.0483C12.5 12.3083 11.558 13.3334 10.4 13.3334C9.242 13.3334 8.3 12.3083 8.3 11.0483V10.7218" stroke="white" stroke-miterlimit="10" stroke-linecap="round" stroke-linejoin="round"/>
<path d="M0.5 6.80432H10.4C11.552 6.80432 12.5 5.77929 12.5 4.51922C12.5 3.26569 11.552 2.23413 10.4 2.23413C9.248 2.23413 8.3 3.25916 8.3 4.51922V4.84567" stroke="white" stroke-miterlimit="10" stroke-linecap="round" stroke-linejoin="round"/>
<path d="M0.5 4.84577H4.886C5.78 4.84577 6.5 4.05578 6.5 3.08951C6.5 2.11671 5.774 1.33325 4.886 1.33325C3.992 1.33325 3.272 2.12324 3.272 3.08951V3.3376" stroke="white" stroke-miterlimit="10" stroke-linecap="round" stroke-linejoin="round"/>
</svg>
